<svg width="324" height="83" viewBox="0 0 324 83" fill="none" xmlns="http://www.w3.org/2000/svg">
<path d="M99.2214 55.8918V73.0131H87.6055V24.6354C91.7881 25.1803 96.156 22.8756 100.047 26.5201C108.9 21.8821 115.873 22.7677 121.229 29.3812C126.99 36.4942 126.922 46.9566 121.078 53.9106C115.671 60.3368 108.755 61.1031 99.2271 55.8918H99.2214ZM113.414 41.5352C113.364 37.2379 110.029 33.7693 106.043 33.8602C102.152 33.951 99.1541 37.3003 99.1765 41.5352C99.199 45.8723 102.107 49.091 106.054 49.1478C110.164 49.2046 113.465 45.7928 113.414 41.5352Z" fill="#263238"/>
<path d="M37.0098 58.8988H10V9.5H37.0717V20.5694H22.2603V47.5688H37.0098V58.8932V58.8988Z" fill="#263238"/>
<path d="M164.976 43.3761H141.146C141.072 46.9927 142.102 49.5862 145.598 50.366C148.851 51.0959 151.858 50.6756 153.78 47.4295C154.218 46.6885 155.23 45.8535 156.032 45.8037C159.011 45.6102 162.013 45.7263 164.959 45.7263C165.931 55.0056 155.748 59.1476 146.98 58.8876C135.466 58.5448 128.37 50.6867 129.178 39.0461C129.843 29.3742 138.588 22.7493 149.419 23.706C160.137 24.6516 166.528 32.5373 164.981 43.3761H164.976ZM154.093 36.1539C153.354 32.5816 151.182 31.2544 147.975 31.3373C144.825 31.4148 142.062 32.1613 141.578 36.1539H154.093Z" fill="#263238"/>
<path d="M271.548 43.4625H247.705C247.494 46.8425 248.447 49.7247 251.726 50.1064C254.258 50.3996 257.993 49.8574 259.384 48.2366C261.169 46.151 262.686 45.5923 265.104 45.7029C267.265 45.8025 269.432 45.7251 271.594 45.7251C271.48 54.366 264.443 59.2451 253.3 58.88C242.048 58.5149 235.039 50.8808 235.633 39.6344C236.163 29.5386 244.66 22.8118 255.769 23.6914C266.575 24.5488 272.734 32.0169 271.548 43.4625ZM247.836 36.094H260.742C259.783 32.5203 257.559 31.2314 254.297 31.3199C251.155 31.4029 248.737 32.465 247.836 36.094Z" fill="#263238"/>
<path d="M62.1821 34.4512C66.1246 24.8649 73.0912 24.6433 81.2227 26.0507C77.017 31.326 72.9848 36.3851 68.8071 41.6216C73.192 47.0741 77.4538 52.3771 82.1915 58.2785C77.7562 58.2785 73.4721 59.3701 70.3248 57.9682C67.2111 56.5829 65.2454 52.6819 62.2045 49.2408C58.0884 57.3642 51.8162 60.8441 42.4863 57.8186C46.9217 52.3328 51.3346 46.8747 55.8875 41.2448C51.8554 36.1912 47.9577 31.3093 43.892 26.2114C51.9058 24.2055 58.2508 25.4024 62.1877 34.4512H62.1821Z" fill="#263238"/>
<path d="M274.83 26.053C282.894 24.5074 289.615 24.9299 293.198 34.7984C297.352 24.9855 304.248 24.474 312.571 26.0752C308.316 31.3403 304.231 36.3996 300.026 41.6035C304.434 47.0742 308.773 52.4672 313.203 57.9657C304.112 60.6511 298.102 57.4042 293.842 48.592C289.333 57.482 282.911 60.7122 273.498 57.9268C278.035 52.3504 282.476 46.8797 287.053 41.2532C282.995 36.2161 279.057 31.318 274.83 26.0641V26.053Z" fill="#263238"/>
<path d="M222.915 58.7252C212.611 59.8772 203.848 55.3536 204.866 43.7102C205.102 41.0298 204.9 38.31 204.9 35.3542C203.745 34.9946 202.635 34.6462 201.307 34.2304V25.3799C208.005 23.9413 203.331 18.2601 205.504 14.793H216.837C216.837 23.6491 216.837 32.2692 216.837 40.8893C216.837 44.6093 216.59 48.3799 221.684 49.4757C222.271 49.5993 222.794 51.1728 222.869 52.1112C223.041 54.2409 222.926 56.3988 222.926 58.7196L222.915 58.7252Z" fill="#263238"/>
<path d="M183.258 25.3779V57.1343H170.625V25.3779H183.258Z" fill="#263238"/>
<path d="M231.983 31.3759C232.088 34.4871 229.039 37.6246 225.814 37.7248C222.534 37.8303 219.468 34.9617 219.359 31.687C219.249 28.4334 222.122 25.4752 225.484 25.3803C228.835 25.2854 231.879 28.0907 231.989 31.3706L231.983 31.3759Z" fill="#13A9D9"/>
<path d="M197.698 31.5449C197.684 34.792 195.098 37.7434 192.281 37.7276C189.507 37.7117 186.86 34.6758 186.869 31.5079C186.874 28.2661 189.455 25.3622 192.319 25.378C195.201 25.3938 197.717 28.2766 197.698 31.5501V31.5449Z" fill="#13A9D9"/>
<path d="M31.7993 27.1436C35.5969 27.2114 38.9444 30.1756 38.8747 33.4164C38.8049 36.6572 35.3116 39.564 31.5583 39.4909C27.8304 39.4179 24.3688 36.3754 24.4385 33.2233C24.5083 30.0504 28.103 27.0809 31.7993 27.1436Z" fill="#13A9D9"/>
</svg>
